<svg xmlns="http://www.w3.org/2000/svg" width="24" height="24" fill="none" viewBox="0 0 24 24">
  <path fill="#FF9900" d="M16.5 2h-9C4.478 2 2 4.478 2 7.5v9C2 19.522 4.478 22 7.5 22h9c3.022 0 5.5-2.478 5.5-5.5v-9C22 4.478 19.522 2 16.5 2z"/>
  <path fill="#fff" d="M18.04 13.583c-.145.093-.3.186-.451.28a8.327 8.327 0 0 1-7.175.083 9.22 9.22 0 0 1-.536-.287.458.458 0 0 0-.237-.068.44.44 0 0 0-.262.085c-.77.67-.153.125-.23.18-.077.054-.15.109-.214.166a.434.434 0 0 0-.14.316c0 .122.045.236.125.321.386.402.784.719 1.192.95.409.23.831.406 1.266.528.434.122.882.188 1.342.198.46.01.929-.036 1.404-.139a6.42 6.42 0 0 0 2.465-1.09 4.413 4.413 0 0 0 .904-.842.433.433 0 0 0 .125-.322.434.434 0 0 0-.14-.317c-.171-.178-.312-.287-.421-.323a.514.514 0 0 0-.308.002c-.103.028-.18.09-.233.188l-.006.09zM10.793 9.33c0 .405.073.783.22 1.134.146.35.342.65.587.898.245.248.533.443.864.583.33.14.68.21 1.048.21.367 0 .715-.07 1.042-.21.327-.14.614-.335.86-.583.245-.248.441-.548.587-.898.146-.35.219-.729.219-1.134s-.073-.783-.22-1.133a3.058 3.058 0 0 0-.587-.898 2.675 2.675 0 0 0-.86-.583 2.595 2.595 0 0 0-1.041-.21c-.368 0-.717.07-1.048.21-.33.14-.619.335-.864.583a3.058 3.058 0 0 0-.587.898c-.147.35-.22.728-.22 1.133zm8.22 1.651c.055-.33.087-.659.095-.987a9.58 9.58 0 0 0-.045-.95 7.693 7.693 0 0 0-.139-.887 5.647 5.647 0 0 0-.261-.873 3.998 3.998 0 0 0-.796-1.234 3.54 3.54 0 0 0-1.15-.817 3.486 3.486 0 0 0-1.403-.294c-.33 0-.644.046-.944.139a2.6 2.6 0 0 0-.814.42c-.088.067-.171.142-.25.224a2.304 2.304 0 0 0-.22.268 2.38 2.38 0 0 0-.47-.492 2.31 2.31 0 0 0-.577-.37 2.88 2.88 0 0 0-.67-.223 3.262 3.262 0 0 0-.732-.077c-.486 0-.934.113-1.345.337a3.235 3.235 0 0 0-1.037.902 4.378 4.378 0 0 0-.664 1.28 5.32 5.32 0 0 0-.233 1.454c0 .505.08.985.24 1.44.16.454.378.85.655 1.189a2.98 2.98 0 0 0 .975.775 2.65 2.65 0 0 0 1.198.273c.385 0 .741-.075 1.068-.224.327-.15.65-.384.97-.705a.6.6 0 0 1 .086.153.65.65 0 0 0 .093.153c.14.15.346.225.617.225h1.35c.08 0 .155-.01.226-.032a.552.552 0 0 0 .195-.107.565.565 0 0 0 .129-.175.518.518 0 0 0 .047-.225.584.584 0 0 0-.34-.542c-.023-.027-.04-.068-.05-.121a1.01 1.01 0 0 1-.017-.203V9.33c0-.192.016-.375.05-.548.033-.173.087-.327.162-.462a.889.889 0 0 1 .307-.322.858.858 0 0 1 .485-.121c.329 0 .593.146.792.437.2.292.329.693.386 1.204a.674.674 0 0 0 .15.323.443.443 0 0 0 .347.14h1.242z"/>
</svg>